<svg width="20" height="20" viewBox="0 0 20 20" fill="none" xmlns="http://www.w3.org/2000/svg">
<path fill-rule="evenodd" clip-rule="evenodd" d="M9.92887 1.99204C11.195 1.94407 12.4629 1.97747 13.7245 2.09204C14.3366 2.08447 14.9446 2.18996 15.5171 2.40304C16.3069 2.76499 16.9417 3.38926 17.3097 4.16604C17.5258 4.73052 17.6321 5.32994 17.6229 5.93304C17.6229 6.86604 17.7246 7.17704 17.7246 9.66604C17.7733 10.9112 17.7394 12.1582 17.6229 13.399C17.6306 14.001 17.5233 14.599 17.3067 15.162C16.9386 15.9388 16.3039 16.5631 15.5141 16.925C14.9416 17.1381 14.3335 17.2436 13.7215 17.236C12.7728 17.236 12.4566 17.336 9.92582 17.336C8.66069 17.3829 7.39379 17.3485 6.13321 17.233C5.52116 17.2406 4.9131 17.1351 4.34062 16.922C3.55149 16.5611 2.91683 15.9383 2.54803 15.163C2.33138 14.6 2.22411 14.002 2.23181 13.4C2.23181 12.467 2.13013 12.156 2.13013 9.66704C2.08135 8.42186 2.11532 7.17487 2.23181 5.93404C2.22411 5.33209 2.33138 4.73407 2.54803 4.17104C2.73203 3.78613 2.9817 3.43506 3.28622 3.13304C3.53347 2.77033 3.90948 2.51143 4.34062 2.40704C4.9131 2.19396 5.52116 2.08847 6.13321 2.09604C7.39487 1.98147 8.66279 1.94807 9.92887 1.99604V1.99204ZM9.92887 0.333041C8.62891 0.286325 7.32725 0.319723 6.03154 0.433041C5.23758 0.432144 4.45016 0.57415 3.70818 0.852041C3.06836 1.05731 2.48926 1.41331 2.02134 1.88904C1.53762 2.34924 1.17564 2.91878 0.966931 3.54804C0.633782 4.26297 0.487345 5.04837 0.540898 5.83304C0.425678 7.10737 0.391719 8.38754 0.439219 9.66604C0.391548 10.9459 0.425508 12.2274 0.540898 13.503C0.539183 14.2823 0.682184 15.0553 0.962863 15.784C1.17158 16.4133 1.53355 16.9828 2.01727 17.443C2.4852 17.9188 3.06429 18.2748 3.70412 18.48C4.44508 18.7561 5.23106 18.8967 6.0234 18.895C7.32047 19.0085 8.62349 19.0419 9.92481 18.995C11.2261 19.0419 12.5291 19.0085 13.8262 18.895C14.6185 18.8967 15.4045 18.7561 16.1455 18.48C16.7817 18.2649 17.3597 17.9099 17.8354 17.442C18.3111 16.9742 18.6721 16.4058 18.8908 15.78C19.1715 15.0513 19.3145 14.2783 19.3128 13.499C19.3128 12.462 19.4145 12.151 19.4145 9.66204C19.4621 8.38221 19.4282 7.10069 19.3128 5.82504C19.3145 5.04578 19.1715 4.27277 18.8908 3.54404C18.6821 2.91478 18.3201 2.34524 17.8364 1.88504C17.3683 1.4109 16.7896 1.0563 16.1506 0.852041C15.4096 0.57451 14.6232 0.43251 13.8303 0.433041C12.5332 0.319554 11.2302 0.286155 9.92887 0.333041ZM9.92887 4.89604C9.28907 4.88577 8.6537 5.00213 8.06055 5.23821C7.46739 5.47429 6.92856 5.82526 6.47609 6.27026C6.02362 6.71525 5.66676 7.24519 5.42672 7.82856C5.18668 8.41192 5.06836 9.0368 5.07881 9.66604C5.07881 10.6095 5.36326 11.5317 5.89619 12.3161C6.42912 13.1005 7.1866 13.7119 8.07283 14.0729C8.95907 14.434 9.93425 14.5284 10.8751 14.3444C11.8159 14.1603 12.6801 13.706 13.3584 13.0389C14.0367 12.3718 14.4986 11.5219 14.6857 10.5966C14.8729 9.67133 14.7768 8.71224 14.4097 7.84064C14.0427 6.96904 13.421 6.22407 12.6234 5.69993C11.8258 5.1758 10.8881 4.89604 9.92887 4.89604ZM9.92887 12.777C9.51139 12.7845 9.09665 12.7091 8.70945 12.5554C8.32224 12.4017 7.9705 12.1728 7.67525 11.8825C7.37999 11.5921 7.14727 11.2462 6.99099 10.8653C6.83471 10.4845 6.75807 10.0766 6.76566 9.66604C6.75807 9.25545 6.83471 8.84756 6.99099 8.46675C7.14727 8.08593 7.37999 7.74 7.67525 7.44962C7.9705 7.15924 8.32224 6.93036 8.70945 6.77666C9.09665 6.62296 9.51139 6.54758 9.92887 6.55504C10.3464 6.54758 10.7611 6.62296 11.1483 6.77666C11.5355 6.93036 11.8872 7.15924 12.1825 7.44962C12.4778 7.74 12.7105 8.08593 12.8668 8.46675C13.023 8.84756 13.0997 9.25545 13.0921 9.66604C13.0997 10.0766 13.023 10.4845 12.8668 10.8653C12.7105 11.2462 12.4778 11.5921 12.1825 11.8825C11.8872 12.1728 11.5355 12.4017 11.1483 12.5554C10.7611 12.7091 10.3464 12.7845 9.92887 12.777ZM14.9904 3.54704C14.761 3.54704 14.5367 3.61396 14.3459 3.73933C14.1551 3.86471 14.0064 4.04291 13.9186 4.2514C13.8308 4.45989 13.8078 4.68931 13.8526 4.91064C13.8973 5.13197 14.0078 5.33528 14.1701 5.49485C14.3323 5.65442 14.539 5.76309 14.7641 5.80712C14.9891 5.85114 15.2224 5.82855 15.4344 5.74219C15.6464 5.65583 15.8276 5.50958 15.9551 5.32195C16.0825 5.13431 16.1506 4.91371 16.1506 4.68804C16.1479 4.38624 16.0248 4.09753 15.8078 3.88412C15.5908 3.6707 15.2973 3.54965 14.9904 3.54704Z" fill="white"/>
</svg>
