<svg width="20" height="16" viewBox="0 0 20 16" fill="none" xmlns="http://www.w3.org/2000/svg">
<path fill-rule="evenodd" clip-rule="evenodd" d="M6.44947 15.8079C7.9071 15.8208 9.35274 15.548 10.702 15.0054C12.0512 14.4627 13.277 13.6612 14.3077 12.6474C15.3385 11.6337 16.1535 10.4282 16.7053 9.1012C17.257 7.77424 17.5344 6.35246 17.5212 4.91889V4.39989C18.2581 3.84838 18.8991 3.18309 19.4196 2.42989C18.7125 2.73224 17.9678 2.94139 17.205 3.05189C17.9892 2.56758 18.5837 1.83663 18.8919 0.977891C18.13 1.39498 17.3142 1.70882 16.4668 1.91089C16.1102 1.51559 15.6715 1.20003 15.1804 0.985446C14.6893 0.770864 14.1572 0.662242 13.6198 0.666891C12.5903 0.68312 11.6075 1.09258 10.8794 1.80867C10.1513 2.52476 9.73493 3.49132 9.71843 4.50389C9.69316 4.7845 9.7278 5.06721 9.82011 5.33389C8.26859 5.26018 6.751 4.86124 5.36899 4.16379C3.98699 3.46635 2.77248 2.4865 1.80683 1.28989C1.45973 1.89025 1.27784 2.56927 1.27912 3.25989C1.29303 3.88669 1.45222 4.50209 1.74454 5.05923C2.03686 5.61637 2.4546 6.10055 2.96596 6.47489C2.33209 6.46202 1.71323 6.28285 1.17337 5.95589C1.17234 6.84403 1.48848 7.70431 2.06662 8.38659C2.64475 9.06886 3.44815 9.52978 4.33659 9.68889C3.99303 9.77865 3.63685 9.81243 3.28218 9.78889C3.03172 9.80672 2.78023 9.77265 2.544 9.68889C2.80128 10.4582 3.29399 11.1305 3.95468 11.6138C4.61538 12.0971 5.41179 12.3678 6.23493 12.3889C4.84892 13.4536 3.14349 14.0369 1.38486 14.0479C1.06521 14.0659 0.744707 14.0322 0.436203 13.9479C2.18104 15.1942 4.29026 15.8494 6.44642 15.8149" fill="white"/>
</svg>
